COMMAND:
ffmpeg -y -hide_banner -i /Volumes/AIGC/AI-CUT/projects/0622/结果/文案8/auto-edit/edit/visual_base_no_subs.mp4 -i /Volumes/AIGC/AI-CUT/projects/0622/素材/音频/文案8-音频.mp3 -vf subtitles=/Volumes/AIGC/AI-CUT/projects/0622/结果/文案8/auto-edit/edit/master.srt:force_style='FontName=Heiti SC,FontSize=20,PrimaryColour=&H00FFFFFF,OutlineColour=&H00000000,Outline=2,Shadow=1,BorderStyle=3,BackColour=&H80000000,Alignment=2,MarginL=44,MarginR=44,MarginV=40' -map 0:v:0 -map 1:a:0 -t 33.480 -c:v libx264 -preset medium -crf 18 -c:a aac -b:a 192k -movflags +faststart -shortest /Volumes/AIGC/AI-CUT/projects/0622/结果/文案8/文案8_final.mp4

STDOUT:


STDERR:
Input #0, mov,mp4,m4a,3gp,3g2,mj2, from '/Volumes/AIGC/AI-CUT/projects/0622/结果/文案8/auto-edit/edit/visual_base_no_subs.mp4':
  Metadata:
    major_brand     : isom
    minor_version   : 512
    compatible_brands: isomiso2avc1mp41
    encoder         : Lavf62.3.100
  Duration: 00:00:33.67, start: 0.000000, bitrate: 2984 kb/s
  Stream #0:0[0x1](und): Video: h264 (High) (avc1 / 0x31637661), yuv420p(tv, bt709, progressive), 1280x720 [SAR 1:1 DAR 16:9], 2981 kb/s, 30 fps, 30 tbr, 15360 tbn (default)
    Metadata:
      handler_name    : VideoHandler
      vendor_id       : [0][0][0][0]
      encoder         : Lavc62.11.100 libx264
Input #1, mp3, from '/Volumes/AIGC/AI-CUT/projects/0622/素材/音频/文案8-音频.mp3':
  Metadata:
    AIGC            : {"Label":"1","ContentProducer":"MiniMax","ProduceID":"0687f456c9a97900a4114d40f93e83f2","ReservedCode1":"{\"SecurityData\":{\"Type\":\"TC260PG\",\"Version\":1,\"PubSD\":[{\"Type\":\"DS\",\"AlgID\":\"1.2.156.10197.1.501\",\"TBSData\":{\"Type\":\"LabelMataD
    encoder         : Lavf59.27.100
  Duration: 00:00:33.48, start: 0.016531, bitrate: 128 kb/s
  Stream #1:0: Audio: mp3 (mp3float), 32000 Hz, mono, fltp, 128 kb/s, start 0.016531
[Parsed_subtitles_0 @ 0xcacc48780] libass API version: 0x1704000
[Parsed_subtitles_0 @ 0xcacc48780] libass source: tarball: 0.17.4
[Parsed_subtitles_0 @ 0xcacc48780] Shaper: FriBidi 1.0.16 (SIMPLE) HarfBuzz-ng 12.1.0 (COMPLEX)
[Parsed_subtitles_0 @ 0xcacc48780] Using font provider coretext
Stream mapping:
  Stream #0:0 -> #0:0 (h264 (native) -> h264 (libx264))
  Stream #1:0 -> #0:1 (mp3 (mp3float) -> aac (native))
Press [q] to stop, [?] for help
[Parsed_subtitles_0 @ 0xcab08c300] libass API version: 0x1704000
[Parsed_subtitles_0 @ 0xcab08c300] libass source: tarball: 0.17.4
[Parsed_subtitles_0 @ 0xcab08c300] Shaper: FriBidi 1.0.16 (SIMPLE) HarfBuzz-ng 12.1.0 (COMPLEX)
[Parsed_subtitles_0 @ 0xcab08c300] Using font provider coretext
[Parsed_subtitles_0 @ 0xcab08c300] fontselect: (Heiti SC, 400, 0) -> /System/Library/Fonts/STHeiti Medium.ttc, -1, STHeitiSC-Medium
[libx264 @ 0xcacc91180] using SAR=1/1
[libx264 @ 0xcacc91180] using cpu capabilities: ARMv8 NEON DotProd I8MM
[libx264 @ 0xcacc91180] profile High, level 3.1, 4:2:0, 8-bit
[libx264 @ 0xcacc91180] 264 - core 165 r3222 b35605a - H.264/MPEG-4 AVC codec - Copyleft 2003-2025 - http://www.videolan.org/x264.html - options: cabac=1 ref=3 deblock=1:0:0 analyse=0x3:0x113 me=hex subme=7 psy=1 psy_rd=1.00:0.00 mixed_ref=1 me_range=16 chroma_me=1 trellis=1 8x8dct=1 cqm=0 deadzone=21,11 fast_pskip=1 chroma_qp_offset=-2 threads=15 lookahead_threads=2 sliced_threads=0 nr=0 decimate=1 interlaced=0 bluray_compat=0 constrained_intra=0 bframes=3 b_pyramid=2 b_adapt=1 b_bias=0 direct=1 weightb=1 open_gop=0 weightp=2 keyint=250 keyint_min=25 scenecut=40 intra_refresh=0 rc_lookahead=40 rc=crf mbtree=1 crf=18.0 qcomp=0.60 qpmin=0 qpmax=69 qpstep=4 ip_ratio=1.40 aq=1:1.00
Output #0, mp4, to '/Volumes/AIGC/AI-CUT/projects/0622/结果/文案8/文案8_final.mp4':
  Metadata:
    major_brand     : isom
    minor_version   : 512
    compatible_brands: isomiso2avc1mp41
    encoder         : Lavf62.3.100
  Stream #0:0(und): Video: h264 (avc1 / 0x31637661), yuv420p(tv, bt709, progressive), 1280x720 [SAR 1:1 DAR 16:9], q=2-31, 30 fps, 15360 tbn (default)
    Metadata:
      encoder         : Lavc62.11.100 libx264
      handler_name    : VideoHandler
      vendor_id       : [0][0][0][0]
    Side data:
      cpb: bitrate max/min/avg: 0/0/0 buffer size: 0 vbv_delay: N/A
  Stream #0:1: Audio: aac (LC) (mp4a / 0x6134706D), 32000 Hz, mono, fltp, 192 kb/s
    Metadata:
      encoder         : Lavc62.11.100 aac
frame=   56 fps=0.0 q=24.0 size=     512KiB time=00:00:01.80 bitrate=2330.4kbits/s speed=3.57x elapsed=0:00:00.50    
frame=  113 fps=112 q=24.0 size=    1280KiB time=00:00:03.70 bitrate=2834.1kbits/s speed=3.66x elapsed=0:00:01.01    
frame=  196 fps=129 q=24.0 size=    2304KiB time=00:00:06.46 bitrate=2918.8kbits/s speed=4.27x elapsed=0:00:01.51    
frame=  262 fps=130 q=24.0 size=    3328KiB time=00:00:08.66 bitrate=3145.8kbits/s speed= 4.3x elapsed=0:00:02.01    
frame=  331 fps=131 q=24.0 size=    4096KiB time=00:00:10.96 bitrate=3059.7kbits/s speed=4.35x elapsed=0:00:02.51    
frame=  420 fps=139 q=24.0 size=    5376KiB time=00:00:13.93 bitrate=3160.8kbits/s speed=4.61x elapsed=0:00:03.02    
frame=  506 fps=143 q=24.0 size=    6144KiB time=00:00:16.80 bitrate=2996.0kbits/s speed=4.76x elapsed=0:00:03.52    
frame=  565 fps=140 q=21.0 size=    7424KiB time=00:00:18.76 bitrate=3240.7kbits/s speed=4.66x elapsed=0:00:04.02    
frame=  648 fps=143 q=24.0 size=    8704KiB time=00:00:23.64 bitrate=3015.2kbits/s speed=5.22x elapsed=0:00:04.53    
frame=  725 fps=144 q=24.0 size=    9984KiB time=00:00:26.36 bitrate=3101.8kbits/s speed=5.24x elapsed=0:00:05.03    
frame=  802 fps=145 q=24.0 size=   11008KiB time=00:00:28.92 bitrate=3117.3kbits/s speed=5.22x elapsed=0:00:05.54    
frame=  877 fps=145 q=24.0 size=   12032KiB time=00:00:31.42 bitrate=3136.7kbits/s speed= 5.2x elapsed=0:00:06.04    
frame=  926 fps=141 q=24.0 size=   13056KiB time=00:00:32.99 bitrate=3241.9kbits/s speed=5.04x elapsed=0:00:06.55    
frame=  990 fps=140 q=-1.0 size=   14080KiB time=N/A bitrate=N/A speed=N/A elapsed=0:00:07.05    
[mp4 @ 0xcad03c780] Starting second pass: moving the moov atom to the beginning of the file
[out#0/mp4 @ 0xcacc48480] video:13729KiB audio:557KiB subtitle:0KiB other streams:0KiB global headers:0KiB muxing overhead: 0.180263%
frame= 1003 fps=141 q=-1.0 Lsize=   14311KiB time=00:00:33.36 bitrate=3513.7kbits/s speed=4.71x elapsed=0:00:07.09    
[libx264 @ 0xcacc91180] frame I:10    Avg QP:15.92  size: 55673
[libx264 @ 0xcacc91180] frame P:346   Avg QP:18.70  size: 26591
[libx264 @ 0xcacc91180] frame B:647   Avg QP:20.71  size:  6647
[libx264 @ 0xcacc91180] consecutive B-frames:  8.0% 16.2%  5.7% 70.2%
[libx264 @ 0xcacc91180] mb I  I16..4: 19.8% 50.1% 30.1%
[libx264 @ 0xcacc91180] mb P  I16..4: 12.5% 29.6%  6.5%  P16..4: 22.3% 10.6%  4.8%  0.0%  0.0%    skip:13.7%
[libx264 @ 0xcacc91180] mb B  I16..4:  1.7%  3.6%  0.6%  B16..8: 27.2%  6.6%  1.1%  direct: 2.6%  skip:56.7%  L0:43.1% L1:44.5% BI:12.4%
[libx264 @ 0xcacc91180] 8x8 transform intra:60.5% inter:55.2%
[libx264 @ 0xcacc91180] coded y,uvDC,uvAC intra: 46.1% 35.7% 6.0% inter: 10.1% 9.7% 0.6%
[libx264 @ 0xcacc91180] i16 v,h,dc,p: 20% 39%  8% 33%
[libx264 @ 0xcacc91180] i8 v,h,dc,ddl,ddr,vr,hd,vl,hu: 20% 31% 21%  3%  5%  4%  7%  4%  5%
[libx264 @ 0xcacc91180] i4 v,h,dc,ddl,ddr,vr,hd,vl,hu: 22% 34% 14%  3%  7%  5%  8%  4%  4%
[libx264 @ 0xcacc91180] i8c dc,h,v,p: 54% 27% 16%  3%
[libx264 @ 0xcacc91180] Weighted P-Frames: Y:1.7% UV:0.6%
[libx264 @ 0xcacc91180] ref P L0: 76.4%  8.7% 11.0%  3.8%  0.1%
[libx264 @ 0xcacc91180] ref B L0: 89.5%  9.2%  1.4%
[libx264 @ 0xcacc91180] ref B L1: 98.3%  1.7%
[libx264 @ 0xcacc91180] kb/s:3363.73
[aac @ 0xcace14380] Qavg: 65420.805
